<?xml version="1.0" standalone="no"?>
<!DOCTYPE svg PUBLIC "-//W3C//DTD SVG 20010904//EN"
 "http://www.w3.org/TR/2001/REC-SVG-20010904/DTD/svg10.dtd">
<svg version="1.0" xmlns="http://www.w3.org/2000/svg"
 width="256.000000pt" height="256.000000pt" viewBox="0 0 256.000000 256.000000"
 preserveAspectRatio="xMidYMid meet">
<metadata>
Created by potrace 1.15, written by Peter Selinger 2001-2017
</metadata>
<g transform="translate(0.000000,256.000000) scale(0.100000,-0.100000)"
fill="#a0a0a0" stroke="none">
<path d="M1514 2052 c-41 -33 -44 -51 -44 -306 l0 -246 -337 269 c-186 147
-348 273 -360 279 -53 29 -141 -2 -170 -58 -18 -36 -18 -1384 0 -1420 19 -37
74 -70 117 -70 48 0 54 4 440 312 l310 248 0 -246 c0 -255 3 -273 44 -306 18
-15 46 -18 209 -18 l189 0 29 29 29 29 0 732 0 732 -29 29 -29 29 -189 0
c-163 0 -191 -3 -209 -18z"/>
</g>
</svg>
