<?xml version="1.0" standalone="no"?>
<!DOCTYPE svg PUBLIC "-//W3C//DTD SVG 20010904//EN"
 "http://www.w3.org/TR/2001/REC-SVG-20010904/DTD/svg10.dtd">
<svg version="1.0" xmlns="http://www.w3.org/2000/svg"
 width="256.000000pt" height="256.000000pt" viewBox="0 0 256.000000 256.000000"
 preserveAspectRatio="xMidYMid meet">
<metadata>
Created by potrace 1.15, written by Peter Selinger 2001-2017
</metadata>
<g transform="translate(0.000000,256.000000) scale(0.100000,-0.100000)"
fill="#000000" stroke="none">
<path d="M619 2041 l-29 -29 0 -732 0 -732 29 -29 29 -29 189 0 c202 0 214 3
242 57 16 31 16 1435 0 1466 -28 54 -40 57 -242 57 l-189 0 -29 -29z"/>
<path d="M1514 2052 c-12 -9 -27 -27 -33 -39 -16 -31 -16 -1435 0 -1466 28
-54 40 -57 242 -57 l189 0 29 29 29 29 0 732 0 732 -29 29 -29 29 -189 0
c-163 0 -191 -3 -209 -18z"/>
</g>
</svg>
